<?xml version="1.0" encoding="utf-8"?>
<!-- Generator: Adobe Illustrator 21.1.0, SVG Export Plug-In . SVG Version: 6.00 Build 0)  -->
<svg version="1.1" id="Layer_1" xmlns="http://www.w3.org/2000/svg" xmlns:xlink="http://www.w3.org/1999/xlink" 
	 viewBox="0 0 960 560 " preserveAspectRatio="xMinYMin meet">
<g>
	<g>
		<path fill="#6D6E71" d="M447.3,248.9c1.8,0,3.4,0.7,4.8,2.1c1.3,1.4,2,3,2,4.8v51.7c0,1.9-0.7,3.5-2,4.9c-1.3,1.3-2.9,2-4.8,2
			c-2,0-3.6-0.7-5-2c-1.3-1.3-2-3-2-4.9v-51.7c0-1.8,0.7-3.5,2-4.8C443.6,249.6,445.3,248.9,447.3,248.9z"/>
		<path fill="#6D6E71" d="M466.4,248.9c0.9-0.1,1.7,0.1,2.6,0.5c0.8,0.4,1.6,0.9,2.2,1.5c0.6,0.6,1.1,1.4,1.5,2.2
			c0.3,0.9,0.5,1.7,0.5,2.6v11.8c2.4-1.2,4.9-2,7.4-2.4c2.6-0.4,5.1-0.4,7.6,0c2.5,0.4,5,1.1,7.4,2.3c2.4,1.1,4.6,2.7,6.7,4.6
			c2.4,2.5,4.2,5.1,5.4,7.9c1.2,2.8,1.8,6.1,1.8,9.7c0,3.4-0.7,6.6-2,9.6c-1.3,3-3.1,5.6-5.4,7.9c-2.3,2.3-4.9,4-7.9,5.3
			c-3,1.3-6.2,1.9-9.5,1.9c-3.3,0-6.4-0.7-9.4-2c-3-1.3-5.7-3.1-7.9-5.4c-2.3-2.3-4.1-4.9-5.5-7.9c-1.4-3-2-6.2-2-9.5v-34.3
			c0-0.8,0.2-1.6,0.6-2.4c0.4-0.8,0.9-1.5,1.5-2.1c0.6-0.6,1.3-1,2.1-1.4C464.8,249,465.6,248.8,466.4,248.9z M473.2,289.5
			c0,1.6,0.3,3.1,0.9,4.5c0.6,1.4,1.5,2.6,2.5,3.6c1.1,1,2.3,1.8,3.6,2.5c1.4,0.6,2.8,0.9,4.4,0.9c1.5,0,3-0.3,4.4-0.9
			c1.4-0.6,2.6-1.4,3.7-2.5c1.1-1,1.9-2.2,2.5-3.6c0.6-1.4,0.9-2.9,0.9-4.5c0-1.6-0.3-3.1-0.9-4.5c-0.6-1.4-1.5-2.6-2.5-3.6
			c-1.1-1-2.3-1.8-3.7-2.5c-1.4-0.6-2.9-0.9-4.4-0.9c-1.6,0-3,0.3-4.4,1c-1.4,0.7-2.6,1.5-3.6,2.6c-1.1,1.1-1.9,2.3-2.5,3.7
			C473.5,286.6,473.2,288.1,473.2,289.5z"/>
		<path fill="#6D6E71" d="M540.9,264.8c3.1,0.3,6,1.2,8.7,2.7c2.7,1.4,5,3.3,7,5.5c1.9,2.2,3.5,4.8,4.6,7.6c1.1,2.8,1.7,5.8,1.7,9
			v18.1c0,1.8-0.7,3.4-2,4.7c-1.4,1.3-2.9,1.9-4.6,1.9c-2.4,0-4.3-1.1-5.7-3.3c-0.3,0.1-0.7,0.3-0.9,0.5c-0.3,0.2-0.5,0.3-0.8,0.5
			c-1.6,0.8-3.3,1.3-5,1.7c-1.8,0.4-3.7,0.6-5.6,0.6c-5.1,0-9.7-1.4-13.7-4.2c-4-2.8-7-6.3-9-10.7c-0.7-1.6-1.2-3.2-1.6-4.8
			c-0.4-1.6-0.6-3.3-0.6-5.1c0-1.8,0.2-3.5,0.6-5.1c0.4-1.6,0.9-3.2,1.6-4.8c2-4.4,5-8,9-10.8c4-2.7,8.6-4.1,13.7-4.1
			c0.5,0,1,0,1.5,0C539.9,264.7,540.4,264.7,540.9,264.8z M537.9,301c1.6,0,3.1-0.3,4.5-0.9c1.4-0.6,2.6-1.4,3.6-2.4
			c1-1,1.8-2.2,2.5-3.6c0.6-1.4,0.9-2.9,0.9-4.6c0-1.5-0.3-3-0.9-4.4c-0.6-1.4-1.5-2.6-2.5-3.7c-1.1-1.1-2.3-1.9-3.7-2.5
			c-1.4-0.6-2.9-0.9-4.4-0.9c-1.5,0-2.9,0.3-4.3,0.9c-1.4,0.6-2.6,1.5-3.6,2.5c-1.1,1.1-1.9,2.3-2.5,3.7c-0.6,1.4-0.9,2.9-0.9,4.4
			c0,1.6,0.3,3.1,1,4.5c0.6,1.4,1.5,2.6,2.6,3.6c1.1,1,2.3,1.8,3.6,2.5C535.1,300.7,536.5,301,537.9,301z"/>
		<path fill="#6D6E71" d="M575.1,314.4c-1.8,0-3.4-0.6-4.6-1.8c-1.2-1.2-1.9-2.8-2.1-4.8v-19c0.1-3.3,0.8-6.4,2.1-9.3
			c1.3-2.9,3.1-5.4,5.3-7.6c2.2-2.2,4.8-3.9,7.8-5.1c3-1.3,6.1-2,9.5-2.1c1.9,0,3.5,0.7,4.8,1.9c1.3,1.3,2,2.9,2.1,4.7
			c0,1.8-0.7,3.4-1.9,4.7c-1.3,1.3-2.9,1.9-4.8,2c-1.6,0-3,0.3-4.4,0.9c-1.4,0.6-2.6,1.4-3.6,2.4c-1,1-1.8,2.2-2.5,3.6
			c-0.6,1.4-0.9,2.9-0.9,4.6v18.7c-0.1,1.8-0.8,3.2-2,4.4C578.7,313.8,577.1,314.4,575.1,314.4z"/>
	</g>
	<g>
		<g>
			<polygon fill="#1C75BC" points="360.3,285.4 395.2,244.8 432.2,277.8 395,315.4 			"/>
		</g>
		<g>
			<path fill="#00A651" d="M395,315.6l-34.9-30.2l0.1-0.1l34.9-40.7l37.3,33.1l-0.1,0.1L395,315.6z M360.5,285.4l34.5,29.8l37-37.4
				L395.2,245L360.5,285.4z"/>
		</g>
		<g>
			<path fill="#FFFFFF" d="M394.9,315.8l-4.6-49.3l0,0l4.8-22.3l11.1,52.7L394.9,315.8z M390.6,266.5l4.5,48.4l10.8-18.1l-10.8-51.3
				L390.6,266.5z"/>
		</g>
		<g>
			<path fill="#FFFFFF" d="M406.1,297L406.1,297L360,285.5l30.5-19.1l0.1,0l42,11.4l-0.2,0.2L406.1,297z M360.7,285.3l45.4,11.4
				l25.8-18.9l-41.4-11.2L360.7,285.3z"/>
		</g>
	</g>
</g>
</svg>
