<?xml version="1.0" encoding="utf-8"?>
<!-- Generator: Adobe Illustrator 21.1.0, SVG Export Plug-In . SVG Version: 6.00 Build 0)  -->
<svg version="1.1" id="Layer_1" xmlns="http://www.w3.org/2000/svg" xmlns:xlink="http://www.w3.org/1999/xlink" x="0px" y="0px"
	 viewBox="0 0 400 400" enable-background="new 0 0 400 400" xml:space="preserve">
<g>
	<ellipse id="XMLID_1380_" fill="#EFDFB9" cx="226.9" cy="374.7" rx="116.3" ry="20.3"/>
	<g>
		<g id="XMLID_1368_">
			<g>
				<g id="XMLID_19_">
					<path id="XMLID_20_" fill="#3FA594" d="M296.1,257.4c-9.1,33.1,11,106.4,11,106.4s53.8-48.8,62.9-81.8
						c9.1-33.1,0-65.4-20.4-72.2C329.2,203,305.2,224.3,296.1,257.4z"/>
				</g>
			</g>
		</g>
		<g id="XMLID_1374_">
			<g>
				<g id="XMLID_17_">
					<path id="XMLID_18_" fill="#3FA594" d="M69.7,273.4C51,245.6,47.5,169.1,47.5,169.1s65.6,26.1,84.3,53.9
						c18.7,27.8,20,61.6,2.8,75.5C117.5,312.4,88.4,301.2,69.7,273.4z"/>
				</g>
			</g>
		</g>
	</g>
	<path fill="#86E0CE" d="M98.7,138.9c-0.1-0.7-0.1-1.5-0.2-2.2H99c5.5-32.7,60.7-58.4,128-58.4c67.3,0,122.5,25.7,128,58.4h0.4
		c-0.1,0.7-0.1,1.4-0.2,2.2c0.1,1,0.2,2.1,0.2,3.1c0,2.5-0.3,4.9-0.8,7.3c-2.3,38.6-3.1,82-20,122.3
		c-39.2,93.5-94.4,97.3-107.6,96.8c-13.2,0.5-68.4-3.3-107.6-96.8c-16.9-40.3-17.7-83.7-20-122.3c-0.5-2.4-0.8-4.8-0.8-7.3
		C98.5,141,98.6,140,98.7,138.9z"/>
	<g>
		<path fill="#66C4B6" d="M154,100.5c38.6,0,70.1,31.6,73,71.6c2.8-40.1,34.4-71.6,73-71.6c40.4,0,73.2,34.7,73.2,77.5
			s-32.8,77.5-73.2,77.5c-38.6,0-70.1-31.6-73-71.6c-2.4,34.7-26.4,63-57.8,70c-4.9,1.1-9.9,1.7-15.1,1.7
			c-40.4,0-73.2-34.7-73.2-77.5S113.6,100.5,154,100.5z"/>
	</g>
	<g id="XMLID_1346_">
		<g id="XMLID_1358_">
			<path id="XMLID_1361_" fill="#A9FFEE" d="M191,296.2c4.4,0,8.4-2,11.7-5.4c1-1.1,2.3,0.9,1.5,2.2c-3.2,5.2-7.9,8.5-13.2,8.5
				c-5.3,0-10-3.3-13.2-8.5c-0.8-1.4,0.5-3.3,1.5-2.2C182.6,294.2,186.6,296.2,191,296.2z"/>
			<path id="XMLID_1360_" fill="#A9FFEE" d="M262.9,296.2c4.4,0,8.4-2,11.7-5.4c1-1.1,2.3,0.9,1.5,2.2c-3.2,5.2-7.9,8.5-13.2,8.5
				c-5.3,0-10-3.3-13.2-8.5c-0.8-1.4,0.5-3.3,1.5-2.2C254.4,294.2,258.5,296.2,262.9,296.2z"/>
			<path id="XMLID_1359_" fill="#A9FFEE" d="M226.9,296.2c4.4,0,8.4-2,11.7-5.4c1-1.1,2.3,0.9,1.5,2.2c-3.2,5.2-7.9,8.5-13.2,8.5
				c-5.3,0-10-3.3-13.2-8.5c-0.8-1.4,0.5-3.3,1.5-2.2C218.5,294.2,222.6,296.2,226.9,296.2z"/>
		</g>
		<g id="XMLID_1355_">
			<path id="XMLID_1357_" fill="#A9FFEE" d="M209.5,322.3c4.4,0,8.4-2,11.7-5.4c1-1.1,2.3,0.9,1.5,2.2c-3.2,5.2-7.9,8.5-13.2,8.5
				c-5.3,0-10-3.3-13.2-8.5c-0.8-1.4,0.5-3.3,1.5-2.2C201,320.3,205.1,322.3,209.5,322.3z"/>
			<path id="XMLID_1356_" fill="#A9FFEE" d="M245.4,322.3c4.4,0,8.4-2,11.7-5.4c1-1.1,2.3,0.9,1.5,2.2c-3.2,5.2-7.9,8.5-13.2,8.5
				c-5.3,0-10-3.3-13.2-8.5c-0.8-1.4,0.5-3.3,1.5-2.2C237,320.3,241,322.3,245.4,322.3z"/>
		</g>
	</g>
	<g id="XMLID_1328_">
		<g>
			<g id="XMLID_77_">
				<path id="XMLID_80_" fill="#F49400" d="M265.7,366.7c0,3.8,1.9,9.2,3.7,13.5c1.5,3.6,4.4,3.6,5.9,0c1.8-4.3,3.7-9.7,3.7-13.5
					c0-7-3-12.7-6.6-12.7C268.6,354,265.7,359.7,265.7,366.7z"/>
				<path id="XMLID_79_" fill="#F49400" d="M251.2,366.7c0,3.8,1.9,9.2,3.7,13.5c1.5,3.6,4.4,3.6,5.9,0c1.8-4.3,3.7-9.7,3.7-13.5
					c0-7-3-12.7-6.6-12.7C254.2,354,251.2,359.7,251.2,366.7z"/>
				<path id="XMLID_78_" fill="#F49400" d="M236.8,366.7c0,3.8,1.9,9.2,3.7,13.5c1.5,3.6,4.4,3.6,5.9,0c1.8-4.3,3.7-9.7,3.7-13.5
					c0-7-3-12.7-6.6-12.7C239.7,354,236.8,359.7,236.8,366.7z"/>
			</g>
			<g id="XMLID_73_">
				<path id="XMLID_76_" fill="#F49400" d="M203.9,366.7c0,3.8,1.9,9.2,3.7,13.5c1.5,3.6,4.4,3.6,5.9,0c1.8-4.3,3.7-9.7,3.7-13.5
					c0-7-3-12.7-6.6-12.7C206.8,354,203.9,359.7,203.9,366.7z"/>
				<path id="XMLID_75_" fill="#F49400" d="M189.4,366.7c0,3.8,1.9,9.2,3.7,13.5c1.5,3.6,4.4,3.6,5.9,0c1.8-4.3,3.7-9.7,3.7-13.5
					c0-7-3-12.7-6.6-12.7C192.4,354,189.4,359.7,189.4,366.7z"/>
				<path id="XMLID_74_" fill="#F49400" d="M175,366.7c0,3.8,1.9,9.2,3.7,13.5c1.5,3.6,4.4,3.6,5.9,0c1.8-4.3,3.7-9.7,3.7-13.5
					c0-7-3-12.7-6.6-12.7S175,359.7,175,366.7z"/>
			</g>
		</g>
	</g>
	<path fill="#3FA594" d="M89.8,68.4c0,0,7.1,1,9.8-13.9c0,0,10.5,18.7,38.1,23.7c27,4.8,78.9,1.3,78.9,1.3v0h7.4h5.7h7.4v0
		c0,0,51.9,3.5,78.9-1.3c27.6-4.9,38.1-23.7,38.1-23.7c2.7,14.9,9.8,13.9,9.8,13.9c9.9-3.3,31-27.1,31-27.1
		c-10.6,34.9-31.7,64-95.7,91.7c-34.2,14.8-60,32-69.5,38.7l-2.9,2l-2.9-2c-9.5-6.7-35.2-23.9-69.5-38.7
		c-64.1-27.8-85.2-56.8-95.7-91.7C58.9,41.3,80,65.1,89.8,68.4z"/>
	<g>
		<g id="XMLID_1310_">
			<g>
				<g id="XMLID_61_">
					<path id="XMLID_64_" fill="#3C8E7E" d="M191,108.6c4.4,0,8.4-2,11.7-5.4c1-1.1,2.3,0.9,1.5,2.2c-3.2,5.2-7.9,8.5-13.2,8.5
						c-5.3,0-10-3.3-13.2-8.5c-0.8-1.4,0.5-3.3,1.5-2.2C182.6,106.6,186.6,108.6,191,108.6z"/>
					<path id="XMLID_63_" fill="#3C8E7E" d="M262.9,108.6c4.4,0,8.4-2,11.7-5.4c1-1.1,2.3,0.9,1.5,2.2c-3.2,5.2-7.9,8.5-13.2,8.5
						c-5.3,0-10-3.3-13.2-8.5c-0.8-1.4,0.5-3.3,1.5-2.2C254.4,106.6,258.5,108.6,262.9,108.6z"/>
					<path id="XMLID_62_" fill="#3C8E7E" d="M226.9,108.6c4.4,0,8.4-2,11.7-5.4c1-1.1,2.3,0.9,1.5,2.2c-3.2,5.2-7.9,8.5-13.2,8.5
						c-5.3,0-10-3.3-13.2-8.5c-0.8-1.4,0.5-3.3,1.5-2.2C218.5,106.6,222.6,108.6,226.9,108.6z"/>
				</g>
				<g id="XMLID_58_">
					<path id="XMLID_60_" fill="#3C8E7E" d="M209.5,134.7c4.4,0,8.4-2,11.7-5.4c1-1.1,2.3,0.9,1.5,2.2c-3.2,5.2-7.9,8.5-13.2,8.5
						c-5.3,0-10-3.3-13.2-8.5c-0.8-1.4,0.5-3.3,1.5-2.2C201,132.7,205.1,134.7,209.5,134.7z"/>
					<path id="XMLID_59_" fill="#3C8E7E" d="M245.4,134.7c4.4,0,8.4-2,11.7-5.4c1-1.1,2.3,0.9,1.5,2.2c-3.2,5.2-7.9,8.5-13.2,8.5
						c-5.3,0-10-3.3-13.2-8.5c-0.8-1.4,0.5-3.3,1.5-2.2C237,132.7,241,134.7,245.4,134.7z"/>
				</g>
			</g>
		</g>
		<path id="XMLID_1309_" fill="#3C8E7E" d="M226.9,157.3c4.4,0,8.4-2,11.7-5.4c1-1.1,2.3,0.9,1.5,2.2c-3.2,5.2-7.9,8.5-13.2,8.5
			c-5.3,0-10-3.3-13.2-8.5c-0.8-1.4,0.5-3.3,1.5-2.2C218.5,155.2,222.6,157.3,226.9,157.3z"/>
	</g>
	<g>
		<g>
			<g>
				<ellipse id="XMLID_1327_" fill="#1F1B1C" cx="299" cy="177.9" rx="57" ry="60.3"/>
				<path fill="#1F1B1C" d="M333.7,134.7c0,0,10.9-2.2,13.4-12c0,0,2.1,9.9-6.7,17C331.6,146.7,333.7,134.7,333.7,134.7z"/>
				<path fill="#1F1B1C" d="M340.6,141c0,0,10.9-2.2,13.4-12c0,0,2.1,9.9-6.7,17C338.5,153,340.6,141,340.6,141z"/>
			</g>
			<ellipse id="XMLID_1112_" fill="#FFFFFF" cx="297.5" cy="179.5" rx="51.9" ry="54.9"/>
			<g>
				<path fill="#1F1B1C" d="M335.2,190.6c-3.6-3.5-8.4-5.7-13.7-5.7c-1,0-2,0.1-3,0.3c-0.8-8-7.1-14.2-14.9-14.2
					c-8.3,0-15,7.1-15,15.8c0,8,5.6,14.6,12.8,15.7c-0.2,1.3-0.4,2.7-0.4,4c0,4.6,1.4,8.8,3.7,12.3c-2.3,0.5-4.7,0.7-7.2,0.7
					c-21.9,0-39.6-18.8-39.6-41.9c0-23.1,17.7-41.9,39.6-41.9c21.9,0,39.6,18.8,39.6,41.9C337.1,182.1,336.4,186.5,335.2,190.6z"/>
			</g>
		</g>
		<g>
			<g>
				<ellipse id="XMLID_1116_" fill="#1F1B1C" cx="154.9" cy="177.9" rx="57" ry="60.3"/>
				<path fill="#1F1B1C" d="M120.2,134.7c0,0-10.9-2.2-13.4-12c0,0-2.1,9.9,6.7,17C122.3,146.7,120.2,134.7,120.2,134.7z"/>
				<path fill="#1F1B1C" d="M113.3,141c0,0-10.9-2.2-13.4-12c0,0-2.1,9.9,6.7,17C115.4,153,113.3,141,113.3,141z"/>
			</g>
			<ellipse id="XMLID_1115_" fill="#FFFFFF" cx="156.3" cy="179.5" rx="51.9" ry="54.9"/>
			<g>
				<path fill="#1F1B1C" d="M118.7,190.6c3.6-3.5,8.4-5.7,13.7-5.7c1,0,2,0.1,3,0.3c0.8-8,7.1-14.2,14.9-14.2c8.3,0,15,7.1,15,15.8
					c0,8-5.6,14.6-12.8,15.7c0.2,1.3,0.4,2.7,0.4,4c0,4.6-1.4,8.8-3.7,12.3c2.3,0.5,4.7,0.7,7.2,0.7c21.9,0,39.6-18.8,39.6-41.9
					c0-23.1-17.7-41.9-39.6-41.9c-21.9,0-39.6,18.8-39.6,41.9C116.8,182.1,117.5,186.5,118.7,190.6z"/>
			</g>
		</g>
	</g>
	<path id="XMLID_1307_" fill="#F49400" d="M246.6,209.4c0.1,0.3,0.2,0.5,0.4,0.7c0.7,1.5,0.9,3.9,0.3,5.7L229,276.8
		c-0.9,3.1-3.1,3.1-4,0l-18.4-60.9c-0.6-1.8-0.4-4.2,0.3-5.7c0.1-0.2,0.2-0.5,0.4-0.7C218.1,187.5,235.8,187.5,246.6,209.4z"/>
	<g>
		<polygon fill="#A7CDE8" points="39.8,5 98.6,289 81.4,292.9 22.4,9.3 		"/>
		<polygon fill="#94C3E0" points="4,13.8 22.4,9.3 81.4,292.9 62.7,297.8 		"/>
		<g>
			<g>
				<path fill="#FFFFFF" d="M61.1,289.8l0.3,1.3l18.1-4.5l-0.3-1.3L61.1,289.8z"/>
			</g>
			<g>
				<path fill="#FFFFFF" d="M59.6,282.2l0.3,1.3l8.8-2.2l-0.3-1.3L59.6,282.2z"/>
			</g>
			<g>
				<path fill="#FFFFFF" d="M58,274.7l0.3,1.3l8.8-2.2l-0.3-1.3L58,274.7z"/>
			</g>
			<g>
				<path fill="#FFFFFF" d="M56.4,267.1l0.3,1.3l8.8-2.2l-0.3-1.3L56.4,267.1z"/>
			</g>
			<g>
				<path fill="#FFFFFF" d="M54.9,259.6l0.3,1.3l8.8-2.2l-0.3-1.2L54.9,259.6z"/>
			</g>
			<g>
				<path fill="#FFFFFF" d="M53.2,251.5l0.3,1.3l18.1-4.5l-0.3-1.3L53.2,251.5z"/>
			</g>
			<g>
				<path fill="#FFFFFF" d="M51.6,243.9l0.3,1.3l8.8-2.2l-0.3-1.2L51.6,243.9z"/>
			</g>
			<g>
				<path fill="#FFFFFF" d="M50.1,236.4l0.3,1.3l8.8-2.2l-0.3-1.3L50.1,236.4z"/>
			</g>
			<g>
				<path fill="#FFFFFF" d="M48.5,228.8l0.3,1.3l8.8-2.2l-0.3-1.3L48.5,228.8z"/>
			</g>
			<g>
				<path fill="#FFFFFF" d="M46.9,221.2l0.3,1.3l8.8-2.2l-0.3-1.3L46.9,221.2z"/>
			</g>
			<g>
				<path fill="#FFFFFF" d="M45.3,213.2l0.3,1.3l18.1-4.5l-0.3-1.3L45.3,213.2z"/>
			</g>
			<g>
				<path fill="#FFFFFF" d="M43.7,205.6l0.3,1.3l8.8-2.2l-0.3-1.3L43.7,205.6z"/>
			</g>
			<g>
				<path fill="#FFFFFF" d="M42.2,198.1l0.3,1.2l8.8-2.2l-0.3-1.2L42.2,198.1z"/>
			</g>
			<g>
				<path fill="#FFFFFF" d="M40.6,190.5l0.3,1.3l8.8-2.2l-0.3-1.3L40.6,190.5z"/>
			</g>
			<g>
				<path fill="#FFFFFF" d="M39,182.9l0.3,1.3l8.8-2.2l-0.3-1.3L39,182.9z"/>
			</g>
			<g>
				<path fill="#FFFFFF" d="M37.4,174.9l0.3,1.3l18.1-4.5l-0.3-1.3L37.4,174.9z"/>
			</g>
			<g>
				<path fill="#FFFFFF" d="M35.8,167.3l0.3,1.3l8.8-2.2l-0.3-1.3L35.8,167.3z"/>
			</g>
			<g>
				<path fill="#FFFFFF" d="M34.2,159.8l0.3,1.2l8.8-2.2l-0.3-1.3L34.2,159.8z"/>
			</g>
			<g>
				<path fill="#FFFFFF" d="M32.7,152.2l0.3,1.3l8.8-2.2l-0.3-1.3L32.7,152.2z"/>
			</g>
			<g>
				<path fill="#FFFFFF" d="M31.1,144.6l0.3,1.3l8.8-2.2l-0.3-1.2L31.1,144.6z"/>
			</g>
			<g>
				<path fill="#FFFFFF" d="M29.4,136.6l0.3,1.3l18.1-4.5l-0.3-1.3L29.4,136.6z"/>
			</g>
			<g>
				<path fill="#FFFFFF" d="M27.9,129l0.3,1.3l8.8-2.2l-0.3-1.3L27.9,129z"/>
			</g>
			<g>
				<path fill="#FFFFFF" d="M26.3,121.5l0.3,1.3l8.8-2.2l-0.3-1.3L26.3,121.5z"/>
			</g>
			<g>
				<path fill="#FFFFFF" d="M24.7,113.9l0.3,1.2l8.8-2.2l-0.3-1.2L24.7,113.9z"/>
			</g>
			<g>
				<path fill="#FFFFFF" d="M23.2,106.3l0.3,1.2l8.8-2.2l-0.3-1.3L23.2,106.3z"/>
			</g>
			<g>
				<path fill="#FFFFFF" d="M21.5,98.3l0.3,1.3L39.8,95l-0.3-1.2L21.5,98.3z"/>
			</g>
			<g>
				<path fill="#FFFFFF" d="M19.9,90.7l0.3,1.3l8.8-2.2l-0.3-1.3L19.9,90.7z"/>
			</g>
			<g>
				<path fill="#FFFFFF" d="M18.4,83.1l0.3,1.3l8.8-2.2L27.2,81L18.4,83.1z"/>
			</g>
			<g>
				<path fill="#FFFFFF" d="M16.8,75.6l0.3,1.3l8.8-2.2l-0.3-1.2L16.8,75.6z"/>
			</g>
			<g>
				<path fill="#FFFFFF" d="M15.3,68l0.3,1.2l8.8-2.2L24,65.8L15.3,68z"/>
			</g>
			<g>
				<path fill="#FFFFFF" d="M13.6,60l0.3,1.3l18.1-4.5l-0.3-1.3L13.6,60z"/>
			</g>
			<g>
				<path fill="#FFFFFF" d="M12,52.4l0.3,1.3l8.8-2.2l-0.3-1.2L12,52.4z"/>
			</g>
			<g>
				<path fill="#FFFFFF" d="M10.5,44.8l0.3,1.3l8.8-2.2l-0.3-1.3L10.5,44.8z"/>
			</g>
			<g>
				<path fill="#FFFFFF" d="M8.9,37.3l0.3,1.3l8.8-2.2l-0.3-1.3L8.9,37.3z"/>
			</g>
			<g>
				<path fill="#FFFFFF" d="M7.3,29.7L7.6,31l8.8-2.2l-0.3-1.2L7.3,29.7z"/>
			</g>
		</g>
	</g>
	<g>
		<g>
			<path fill="#5D5D5D" d="M114,260c-26.8-9.4-44.3-31.8-50.7-65c-4.7-24.5-1.6-46-1.5-46.9l0.9-6.2l169.9,40.3l-1,5.9
				c-0.3,1.8-7.9,44.3-39.7,66.2c-12,8.3-25.8,12.4-41.1,12.4C139.4,266.8,127.1,264.5,114,260z M71.5,156.4
				c-1.4,19.1-1.5,75.6,45.5,92c27.8,9.7,51.1,8.2,69.4-4.3c21.3-14.6,30.4-40.9,33.5-52.5L71.5,156.4z"/>
		</g>
		<g>
			<path fill="#5D5D5D" d="M259.6,254.4c-31.8-21.9-39.4-64.4-39.7-66.2l-1-5.9L388.9,142l0.9,6.2c0.1,0.9,3.2,22.4-1.5,46.9
				c-6.4,33.1-23.9,55.6-50.7,65c-13.1,4.6-25.4,6.9-36.8,6.9C285.4,266.8,271.7,262.7,259.6,254.4z M231.6,191.6
				c3.1,11.6,12.1,37.7,33.4,52.4c18.3,12.6,41.7,14.1,69.4,4.4c47-16.4,47-73,45.5-92L231.6,191.6z"/>
		</g>
	</g>
</g>
</svg>
